<svg width="180" height="120" viewBox="0 0 180 120" fill="none" xmlns="http://www.w3.org/2000/svg">
<path d="M16.0935 21.803C39.8681 -17.2575 75.6828 9.91734 75.6828 9.91734C78.0056 11.6728 82.2886 13.1162 85.1987 13.1229L94.7918 13.1296C97.702 13.1329 101.985 11.6896 104.304 9.93412C104.304 9.93412 140.122 -17.2474 163.9 21.813C187.672 60.8601 178.092 103.385 178.092 103.385C176.414 113.797 170.882 120.745 160.443 119.872C150.034 119.003 127.441 91.8312 127.441 91.8312C125.575 89.5924 121.665 87.7631 118.761 87.7631L61.2495 87.753C58.3427 87.753 54.4357 89.5823 52.5728 91.8212C52.5728 91.8212 29.9763 118.993 19.5508 119.862C9.12525 120.735 3.58018 113.78 1.91196 103.375C1.91196 103.375 -7.68115 60.8568 16.0935 21.803ZM111.612 53.5965H123.944V65.4821C123.944 65.4821 126.555 67.4759 130.596 67.4256C134.631 67.3652 136.457 65.2505 136.457 65.2505V53.5998H148.104C148.104 53.5998 149.558 52.1095 149.947 48.1857C150.33 44.2618 148.339 41.0899 148.339 41.0899H136.004V28.7578C136.004 28.7578 133.466 27.3984 129.818 27.5024C126.166 27.6166 123.491 28.9894 123.491 28.9894L123.541 41.0865H111.894C111.894 41.0865 109.859 43.6979 109.692 46.8531C109.524 50.0117 111.612 53.5965 111.612 53.5965ZM55.0466 67.1436C60.4473 67.1436 64.8008 62.7767 64.8008 57.3827C64.8008 51.9786 60.4473 47.6218 55.0466 47.6218C49.6693 47.6218 45.2823 51.9786 45.2823 57.3827C45.2823 62.7801 49.6693 67.1436 55.0466 67.1436ZM55.0466 40.2876C60.4473 40.2876 64.8008 35.9241 64.8008 30.5301C64.8008 25.126 60.4473 20.7692 55.0466 20.7692C49.6693 20.7692 45.2823 25.126 45.2823 30.5301C45.2823 35.9275 49.6693 40.2876 55.0466 40.2876ZM30.7383 54.7041C36.139 54.7041 40.4925 50.3406 40.4925 44.9432C40.4925 39.5425 36.139 35.1823 30.7383 35.1823C25.361 35.1823 20.974 39.5425 20.974 44.9432C20.974 50.3406 25.361 54.7041 30.7383 54.7041Z" fill="#010002"/>
</svg>
